# xmcd
#
# Track frame offsets:
#       150
#       11248
#       29866
#       41926
#       58204
#       74157
#       102695
#       122128
#       136720
#       151493
#       170580
#       185971
#       205179
#       221769
#       236076
#       256705
#       276135
#       292514
#       305129
#       324487
#       339225
#
# Disc length: 4688 seconds
#
# Revision: 0
# Processed by: cddbd v1.5.1PL2 Copyright (c) Steve Scherf et al.
# Submitted via: WhereIsIt 3.65
#
DISCID=55124e15
DTITLE=Michal Tucny - Best Of CD02
DYEAR=2006
DGENRE=Folk
TTITLE0=Cesty toulavy
TTITLE1=Poveste ho vejs
TTITLE2=Rad se brouzdam rosou
TTITLE3=Abych tu zil
TTITLE4=Chtel bych byt medvidkem
TTITLE5=Jak chcete zit bez koni
TTITLE6=Vsichni jsou uz v Mexiku
TTITLE7=Nejlip umim slibovat
TTITLE8=Vzdusne zamky
TTITLE9=Mesicku
TTITLE10=S proudem si plout
TTITLE11=Staryho psa novym kouskum nenaucis
TTITLE12=Umet se narodit
TTITLE13=Byl jsi nejspravnejsi chlap
TTITLE14=Kosmickej vandr
TTITLE15=Medicinman
TTITLE16=Starej harmonikar
TTITLE17=V ulickach mesta Bakersfield
TTITLE18=Poulicni zpevak
TTITLE19=Jizansky rok
TTITLE20=Ja budu zit na veky
EXTD=
EXTT0=
EXTT1=
EXTT2=
EXTT3=
EXTT4=
EXTT5=
EXTT6=
EXTT7=
EXTT8=
EXTT9=
EXTT10=
EXTT11=
EXTT12=
EXTT13=
EXTT14=
EXTT15=
EXTT16=
EXTT17=
EXTT18=
EXTT19=
EXTT20=
PLAYORDER=
